# xmcd
#
# Track frame offsets:
# 150
# 16468
# 30059
# 49440
# 65014
# 78368
# 94795
# 108812
# 125338
# 137813
#
# Disc length: 2010 seconds
#
#
# Revision: 0
# Processed by: cddbd v1.5.2PL0 Copyright (c) Steve Scherf et al.
# Submitted via: FreeRIP 2.951 
#
DISCID=7b07d80a
DTITLE=Tera Lee - All I wanna do
DYEAR=2005
DGENRE=Country
TTITLE0=All I Wanna Do
TTITLE1=What Are Friends For
TTITLE2=Lipstick in Las Vegas
TTITLE3=Leave the Healing to me
TTITLE4=It is What it Is
TTITLE5=Random Joe
TTITLE6=Have Herself a Man
TTITLE7=Walking on Sunshine
TTITLE8=My Man
TTITLE9=I Love the Love
EXTD=
EXTT0=
EXTT1=
EXTT2=
EXTT3=
EXTT4=
EXTT5=
EXTT6=
EXTT7=
EXTT8=
EXTT9=
PLAYORDER=
